<?xml version="1.0" standalone="no"?>
<!DOCTYPE svg PUBLIC "-//W3C//DTD SVG 20010904//EN"
 "http://www.w3.org/TR/2001/REC-SVG-20010904/DTD/svg10.dtd">
<svg version="1.0" xmlns="http://www.w3.org/2000/svg"
 width="700.000000pt" height="700.000000pt" viewBox="0 0 700.000000 700.000000"
 preserveAspectRatio="xMidYMid meet">
<metadata>
Created by potrace 1.11, written by Peter Selinger 2001-2013
</metadata>
<g transform="translate(0.000000,700.000000) scale(0.100000,-0.100000)"
fill="#000000" stroke="none">
<path d="M3520 5415 c-36 -7 -79 -15 -96 -19 -68 -13 -194 -61 -284 -107 -238
-122 -440 -328 -564 -576 -34 -69 -90 -223 -100 -277 -17 -91 -26 -148 -31
-196 -3 -30 -8 -56 -9 -58 -2 -2 -46 8 -97 22 -257 69 -479 69 -715 0 -285
-82 -553 -284 -717 -539 -65 -103 -100 -177 -141 -300 -64 -194 -64 -207 -63
-1030 l2 -739 408 -1 c400 0 407 0 407 20 1 11 1 326 1 700 0 430 4 700 10
733 28 144 119 261 255 327 128 63 265 64 394 3 43 -21 86 -52 125 -92 76 -77
112 -149 131 -256 2 -14 5 -342 5 -730 l1 -705 409 0 c225 0 409 2 410 5 0 3
2 592 3 1310 2 853 7 1317 14 1340 27 94 67 159 139 226 161 152 411 163 583
25 50 -40 57 -47 101 -109 33 -46 63 -123 73 -183 5 -35 10 -285 21 -1054 3
-192 8 -375 11 -405 45 -399 381 -754 794 -839 30 -6 66 -14 80 -17 14 -2 75
-6 136 -8 497 -15 932 289 1056 739 20 75 22 106 26 466 l3 385 -410 0 -411 0
-1 -51 c0 -27 0 -171 0 -319 0 -245 -2 -273 -19 -307 -41 -80 -131 -139 -211
-139 -81 1 -169 58 -208 135 -18 38 -20 68 -26 530 -13 1031 -12 1012 -86
1235 -144 435 -529 768 -989 855 -68 13 -353 13 -420 0z"/>
</g>
</svg>
