<?xml version="1.0" standalone="no"?>
<!DOCTYPE svg PUBLIC "-//W3C//DTD SVG 20010904//EN"
 "http://www.w3.org/TR/2001/REC-SVG-20010904/DTD/svg10.dtd">
<svg version="1.0" xmlns="http://www.w3.org/2000/svg"
 width="500.000000pt" height="500.000000pt" viewBox="0 0 500.000000 500.000000"
 preserveAspectRatio="xMidYMid meet">
<metadata>
Created by potrace 1.11, written by Peter Selinger 2001-2013
</metadata>
<g transform="translate(0.000000,500.000000) scale(0.100000,-0.100000)"
fill="#000000" stroke="none">
<path d="M2442 3953 c-28 -76 -78 -210 -112 -298 -34 -88 -83 -218 -110 -290
-27 -71 -77 -202 -110 -290 -34 -88 -88 -230 -120 -315 -32 -85 -88 -234 -125
-330 -36 -96 -94 -248 -128 -337 -33 -90 -62 -162 -63 -160 -1 1 -92 235 -203
519 -110 284 -205 527 -211 540 -5 13 -25 64 -44 113 -18 50 -98 254 -176 455
-78 201 -145 370 -147 377 -3 9 -69 11 -249 10 -134 -1 -244 -4 -244 -6 0 -5
240 -606 880 -2210 l397 -993 28 73 c63 168 137 363 191 504 31 83 76 202 99
265 24 63 68 180 98 260 31 80 98 258 150 395 163 433 238 630 241 632 2 2 26
-61 55 -139 29 -79 70 -190 91 -248 21 -58 59 -163 85 -235 25 -71 54 -152 65
-180 10 -27 58 -158 106 -290 47 -132 104 -287 125 -345 20 -58 54 -150 74
-205 20 -55 66 -184 103 -287 37 -104 69 -188 72 -188 3 0 34 69 69 153 35 83
101 240 146 347 46 107 113 267 150 355 63 151 111 265 340 810 53 127 112
266 130 310 19 44 95 226 170 405 163 387 217 515 284 674 28 66 51 124 51
130 0 8 -73 12 -240 12 l-241 2 -14 -28 c-8 -15 -32 -72 -54 -126 -22 -54 -65
-160 -96 -234 -31 -74 -85 -207 -122 -295 -36 -88 -87 -212 -113 -275 -41 -97
-150 -361 -304 -735 -99 -239 -132 -315 -137 -315 -3 0 -10 15 -16 33 -10 29
-42 119 -151 422 -43 120 -128 352 -166 455 -14 36 -90 247 -171 470 -80 223
-155 429 -165 458 -50 133 -61 162 -86 235 -15 42 -28 77 -29 77 -1 0 -25 -62
-53 -137z"/>
</g>
</svg>
